<?xml version="1.0" standalone="no"?><!DOCTYPE svg PUBLIC "-//W3C//DTD SVG 1.1//EN" "http://www.w3.org/Graphics/SVG/1.1/DTD/svg11.dtd"><svg t="1582891049643" class="icon" viewBox="0 0 1024 1024" version="1.1" xmlns="http://www.w3.org/2000/svg" p-id="3103" width="25" height="25" xmlns:xlink="http://www.w3.org/1999/xlink"><defs><style type="text/css"></style></defs><path d="M213.333333 85.333333h597.333334v853.333334H213.333333z" fill="#C72C3B" p-id="3104" data-spm-anchor-id="a313x.7781069.0.i14" class="selected"></path><path d="M597.333333 896H256V128h512v597.333333z" fill="#C72C3B" p-id="3105" data-spm-anchor-id="a313x.7781069.0.i15" class="selected"></path><path d="M640 768v25.002667A145.6 145.6 0 0 1 597.333333 896l170.666667-170.666667a145.621333 145.621333 0 0 1-102.997333 42.666667H640z" fill="#FF8B00" p-id="3106"></path><path d="M640 85.333333H341.333333v85.333334a42.666667 42.666667 0 0 0 42.666667 42.666666h256a42.666667 42.666667 0 0 0 42.666667-42.666666V85.333333h-42.666667z m-21.333333 85.333334H405.333333a21.333333 21.333333 0 0 1-21.333333-21.333334V128h256v21.333333a21.333333 21.333333 0 0 1-21.333333 21.333334z" fill="#D9DEE2" p-id="3107"></path><path d="M298.666667 256h85.333333v85.333333h-85.333333z" fill="#FFC200" p-id="3108"></path><path d="M426.666667 277.333333h298.666666v42.666667H426.666667z" fill="#FF8B00" p-id="3109"></path><path d="M298.666667 426.666667h85.333333v85.333333h-85.333333z" fill="#FFC200" p-id="3110"></path><path d="M426.666667 448h298.666666v42.666667H426.666667z" fill="#FF8B00" p-id="3111"></path><path d="M298.666667 597.333333h85.333333v85.333334h-85.333333z" fill="#FFC200" p-id="3112"></path><path d="M426.666667 618.666667h298.666666v42.666666H426.666667z" fill="#FF8B00" p-id="3113"></path></svg>