<?xml version="1.0" standalone="no"?><!DOCTYPE svg PUBLIC "-//W3C//DTD SVG 1.1//EN" "http://www.w3.org/Graphics/SVG/1.1/DTD/svg11.dtd"><svg t="1581689108772" class="icon" viewBox="0 0 1024 1024" version="1.1" xmlns="http://www.w3.org/2000/svg" p-id="2645" xmlns:xlink="http://www.w3.org/1999/xlink" width="25" height="25"><defs><style type="text/css"></style></defs><path d="M863.045818 177.431273c-7.074909-7.447273-18.897455-7.726545-26.344727-0.651637-7.447273 7.074909-7.726545 18.897455-0.651636 26.344728 79.406545 83.409455 123.066182 192.791273 123.066181 307.944727 0 60.322909-11.822545 118.877091-35.095272 173.893818-22.528 53.248-54.737455 101.003636-95.790546 142.056727s-88.808727 73.262545-142.056727 95.790546c-55.109818 23.272727-113.570909 35.095273-173.893818 35.095273s-118.877091-11.822545-173.893818-35.095273c-53.248-22.528-101.003636-54.737455-142.056728-95.790546S123.066182 738.210909 100.538182 684.962909c-23.272727-55.109818-35.095273-113.570909-35.095273-173.893818S77.265455 392.192 100.538182 337.175273c22.528-53.248 54.737455-101.003636 95.790545-142.056728s88.808727-73.262545 142.056728-95.790545c55.109818-23.272727 113.570909-35.095273 173.893818-35.095273 78.103273 0 154.996364 20.48 222.301091 59.112728 8.936727 5.12 20.293818 2.048 25.413818-6.888728 5.12-8.936727 2.048-20.293818-6.888727-25.413818C680.215273 49.152 596.898909 26.996364 512.279273 26.996364 446.929455 26.996364 383.534545 39.842909 323.863273 65.070545 266.24 89.460364 214.481455 124.369455 169.984 168.773818 125.486545 213.178182 90.670545 265.029818 66.280727 322.653091 41.053091 382.324364 28.206545 445.719273 28.206545 511.069091s12.846545 128.744727 38.074182 188.416c24.389818 57.623273 59.298909 109.381818 103.703273 153.879273 44.404364 44.497455 96.256 79.313455 153.879273 103.703272 59.671273 25.227636 123.066182 38.074182 188.416 38.074182s128.744727-12.846545 188.416-38.074182c57.623273-24.389818 109.381818-59.298909 153.879272-103.703272 44.497455-44.404364 79.313455-96.256 103.703273-153.879273 25.227636-59.671273 38.074182-123.066182 38.074182-188.416 0-124.834909-47.383273-243.246545-133.306182-333.637818z" fill="#ffffff" p-id="2646"></path><path d="M326.097455 401.687273m-46.545455 0a46.545455 46.545455 0 1 0 93.090909 0 46.545455 46.545455 0 1 0-93.090909 0Z" fill="#ffffff" p-id="2647"></path><path d="M698.461091 401.687273m-46.545455 0a46.545455 46.545455 0 1 0 93.090909 0 46.545455 46.545455 0 1 0-93.090909 0Z" fill="#ffffff" p-id="2648"></path><path d="M312.133818 759.808c4.002909 0 8.005818-1.303273 11.357091-3.909818 21.224727-16.477091 49.152-30.161455 80.709818-39.563637 33.605818-10.053818 70.004364-15.173818 108.078546-15.173818 38.074182 0 74.472727 5.12 108.078545 15.173818 31.557818 9.402182 59.485091 23.086545 80.709818 39.563637 8.098909 6.330182 19.828364 4.840727 26.158546-3.351273 6.330182-8.098909 4.840727-19.828364-3.351273-26.158545-51.293091-39.749818-128.465455-62.557091-211.502545-62.557091-83.130182 0-160.209455 22.807273-211.502546 62.557091-8.098909 6.330182-9.588364 17.966545-3.351273 26.158545 3.537455 4.747636 9.122909 7.261091 14.615273 7.261091z" fill="#ffffff" p-id="2649"></path></svg>