<?xml version="1.0" standalone="no"?><!DOCTYPE svg PUBLIC "-//W3C//DTD SVG 1.1//EN" "http://www.w3.org/Graphics/SVG/1.1/DTD/svg11.dtd"><svg t="1582891612618" class="icon" viewBox="0 0 1024 1024" version="1.1" xmlns="http://www.w3.org/2000/svg" p-id="8568" width="25" height="25" xmlns:xlink="http://www.w3.org/1999/xlink"><defs><style type="text/css"></style></defs><path d="M 553 248 H 344.1 c -24.6 0 -44.8 20.1 -44.8 44.8 c 0 24.6 20.1 44.8 44.8 44.8 H 553 c 24.6 0 44.8 -20.1 44.8 -44.8 c 0 -24.7 -20.2 -44.8 -44.8 -44.8 Z M 597.8 471.8 c 0 -24.6 -20.1 -44.8 -44.8 -44.8 H 344.1 c -24.6 0 -44.8 20.1 -44.8 44.8 c 0 24.6 20.1 44.8 44.8 44.8 H 553 c 24.6 -0.1 44.8 -20.2 44.8 -44.8 Z" fill="#C72C3B" p-id="8569"></path><path d="M 254.6 809.9 c -24.7 0 -44.8 -20.1 -44.8 -44.8 V 198.3 c 0 -24.7 20.1 -44.8 44.8 -44.8 h 387.9 c 24.7 0 44.8 20.1 44.8 44.8 v 247.1 l 89.5 -89.5 V 198.3 c 0 -74 -60.2 -134.3 -134.3 -134.3 H 254.6 c -74 0 -134.3 60.2 -134.3 134.3 v 566.9 c 0 67.5 50.1 123.3 115 132.7 c 1.7 -1.9 3.3 -3.9 5.1 -5.7 l 82.3 -82.3 h -68.1 Z M 687.3 765.2 c 0 24.7 -20.1 44.8 -44.8 44.8 h -24.4 l -89.5 89.5 h 113.9 c 74 0 134.3 -60.2 134.3 -134.3 V 651.3 l -89.5 89.5 v 24.4 Z" fill="#C72C3B" p-id="8570"></path><path d="M 299.4 650.8 c 0 24.6 20.1 44.8 44.8 44.8 h 61.1 l 89.5 -89.5 H 344.1 c -24.6 0 -44.7 20.1 -44.7 44.7 Z M 888.4 401.6 c -20.4 -20.4 -53.5 -20.4 -73.8 0 L 315.1 886.2 V 960 h 73.8 l 499.4 -484.5 c 20.4 -20.4 20.4 -53.5 0.1 -73.9 Z" fill="#C72C3B" p-id="8571"></path></svg>