<?xml version="1.0" standalone="no"?><!DOCTYPE svg PUBLIC "-//W3C//DTD SVG 1.1//EN" "http://www.w3.org/Graphics/SVG/1.1/DTD/svg11.dtd"><svg t="1581680485847" class="icon" viewBox="0 0 1024 1024" version="1.1" xmlns="http://www.w3.org/2000/svg" p-id="1179" width="200" height="200" xmlns:xlink="http://www.w3.org/1999/xlink"><defs><style type="text/css"></style></defs><path d="M950 913.9L745.9 709.8c60.7-68.5 97.6-158.5 97.6-257 0-214-174.1-388.2-388.2-388.2S67.1 238.8 67.1 452.9 241.3 841 455.3 841c96.1 0 184.2-35.2 252-93.3l204.4 204.4c5.3 5.3 12.2 7.9 19.1 7.9s13.8-2.6 19.1-7.9c10.6-10.5 10.6-27.6 0.1-38.2z m-828.8-461c0-184.2 149.9-334.1 334.1-334.1 184.2 0 334.1 149.9 334.1 334.1S639.6 787 455.3 787c-184.2 0-334.1-149.9-334.1-334.1z" fill="#ffffff" p-id="1180"></path></svg>